<svg width="106" height="180" viewBox="0 0 106 180" fill="none" xmlns="http://www.w3.org/2000/svg">
<path d="M46.7214 0C47.6959 5.50215 50.3271 10.6898 51.3253 16.2536C52.4638 22.5962 51.5192 30.0647 49.9018 36.258C44.1837 58.1534 27.0667 75.4147 17.6974 95.646C11.1095 109.872 9.97096 124.022 11.1818 139.406C3.56886 133.551 1.82929 123.391 1.82929 114.4C-0.409329 120.261 -0.175379 126.583 0.362702 131.089C1.24006 138.436 4.91936 150.354 12.4313 159.386C32.3147 183.292 75.38 188.764 96.3115 163.161C110.375 145.959 107.625 122.262 97.624 103.882C93.6485 96.5737 87.1897 90.6318 84.6502 82.5181C81.7852 73.3661 84.5847 64.1366 85.3784 55.0121C81.3643 57.3138 79.4608 61.0472 77.4113 65.0143C72.2874 74.9333 70.4144 86.469 70.4144 97.5214C66.5032 93.9494 66.0748 88.1856 66.0505 83.1433C65.9938 71.3619 71.21 60.969 72.1764 49.3858C73.3673 35.1146 64.9893 21.9661 56.5658 11.2525C53.5231 7.38225 50.443 3.23021 46.7214 0ZM39.8628 31.2569C38.8771 38.846 32.0317 43.1576 28.6679 49.564C25.604 55.399 25.9762 61.848 26.7693 68.14C32.5361 59.9057 39.1402 52.0852 40.742 41.8842C41.2664 38.5416 41.8362 34.1531 39.8628 31.2569Z" fill="url(#paint0_linear_1_5)"/>
<defs>
<linearGradient id="paint0_linear_1_5" x1="52.9884" y1="0" x2="52.9884" y2="180" gradientUnits="userSpaceOnUse">
<stop offset="0.244792" stop-color="#22DC77"/>
<stop offset="1" stop-color="#1E7CB5"/>
</linearGradient>
</defs>
</svg>
