<svg width="45" height="76" viewBox="0 0 45 76" fill="none" xmlns="http://www.w3.org/2000/svg">
<path d="M19.8345 0C20.2483 2.32313 21.3653 4.51347 21.789 6.86262C22.2724 9.54062 21.8714 12.694 21.1847 15.3089C18.7572 24.5537 11.4906 31.8418 7.51304 40.3839C4.71629 46.3902 4.23296 52.3647 4.74699 58.8602C1.51508 56.388 0.776587 52.0984 0.776587 48.3023C-0.173769 50.777 -0.074451 53.446 0.15398 55.3485C0.526443 58.4507 2.08841 63.4827 5.27744 67.2962C13.7185 77.39 32.0009 79.7003 40.887 68.8901C46.8574 61.6271 45.6898 51.6217 41.4441 43.8611C39.7565 40.7756 37.0145 38.2668 35.9364 34.841C34.7201 30.9768 35.9086 27.0799 36.2456 23.2273C34.5415 24.1992 33.7333 25.7755 32.8633 27.4505C30.688 31.6385 29.8929 36.5091 29.8929 41.1757C28.2325 39.6675 28.0506 37.2339 28.0403 35.1049C28.0162 30.1306 30.2306 25.7425 30.6409 20.8518C31.1465 14.8262 27.5898 9.27457 24.0138 4.75104C22.7221 3.11695 21.4145 1.36387 19.8345 0ZM16.9229 13.1973C16.5044 16.4017 13.5984 18.2221 12.1703 20.927C10.8696 23.3907 11.0276 26.1136 11.3643 28.7702C13.8125 25.2935 16.6161 21.9915 17.2961 17.6844C17.5187 16.2731 17.7607 14.4202 16.9229 13.1973Z" fill="url(#paint0_linear_1_26)"/>
<defs>
<linearGradient id="paint0_linear_1_26" x1="22.4951" y1="0" x2="22.4951" y2="76" gradientUnits="userSpaceOnUse">
<stop offset="0.244792" stop-color="#22DC77"/>
<stop offset="1" stop-color="#1E7CB5"/>
</linearGradient>
</defs>
</svg>
